#N canvas 224 300 388 135 12;
#N canvas 534 270 528 213 META 0;
#X text 2 80 VERSION 0.1;
#X text 2 98 AUTHOR Derek Kwan;
#X text 1 60 NAME pdkm;
#X text -1 19 LICENSE GPL v3;
#X text 1 40 DESCRIPTION list processing/munging pure data externals
;
#X text -1 0 KEYWORDS pdklex list processing munging pure data;
#X text 3 116 RELEASE_DATE 2017;
#X text 4 135 WEBSITE https://github.com/derekxkwan/pdklex;
#X restore 14 15 pd META;
#X text 16 42 LIST OF OBJECTS;
#X text 13 65 dklmunge;
#X text 44 88 list processing/munging;
