#N canvas 1002 199 632 813 12;
#X obj 8 6 cnv 15 500 30 empty empty pdklex 20 12 0 20 -204786 -66577
0;
#X obj 8 36 cnv 15 500 30 empty empty dklgen 20 12 0 20 -204800 -66577
0;
#X obj 20 271 cnv 15 500 225 empty empty inlet 20 12 0 15 -204786 -66577
0;
#X obj 19 497 cnv 15 500 30 empty empty outlet 20 12 0 15 -204800 -66577
0;
#X obj 20 527 cnv 15 500 150 empty empty args 20 12 0 15 -204786 -66577
0;
#N canvas 729 375 374 272 META 0;
#X text 0 139 VERSION 0.1;
#X text 0 157 AUTHOR Derek Kwan;
#X text 0 19 LICENSE GPL v3;
#X text 0 57 INLET_0 bang;
#X text 0 76 INLET_1 list;
#X text -1 119 LIBRARY pdklex;
#X text 1 175 RELEASE_DATE 2017;
#X text 2 194 WEBSITE https://github.com/derekxkwan/pdklex;
#X text 0 0 KEYWORDS pdklex list generator dklgen;
#X text 0 38 DESCRIPTION list generator;
#X text -1 100 OUTLET_0 list;
#X restore 34 689 pd META;
#X text 59 557 none for now;
#X text 23 299 1) bang - trigger output;
#X obj 34 172 bng 15 250 50 0 empty empty empty 17 7 0 10 -262144 -1
-1;
#X obj 68 234 print;
#X text 374 9 Derek Kwan \, 2017;
#X text 379 42 list generator;
#X text 109 500 1) list - generated lists;
#X text 22 322 2) list - gen method and its params;
#X text 102 347 see dklgen-gens;
#N canvas 634 330 1156 507 dklgen-gens 0;
#X text 4 5 MUNGERS:;
#X text 7 25 none - do nothing;
#X text 3 284 TO COME:;
#N canvas 980 308 862 452 pdklgen-randfu 0;
#X obj 110 325 pdklex/dklgen;
#X msg 198 179 list randfu;
#X msg 224 219 list randfu 3;
#X msg 246 252 list randfu 2 3;
#X msg 250 293 list randfu -1 5 3;
#X obj 110 249 bng 15 250 50 0 empty empty empty 17 7 0 10 -262144
-1 -1;
#X obj 110 350 print;
#X text 433 23 0 args: 1 elt list with number in [0 \, 1);
#X text 433 44 1 arg: arg0 elt list with numbers in [0 \, 1);
#X text 434 67 2 args: arg1 elt list with numbers in [0 arg0);
#X text 434 90 3 args: arg2 elt list with numbers in [arg0 \, arg1)
;
#X connect 0 0 6 0;
#X connect 1 0 0 1;
#X connect 2 0 0 1;
#X connect 3 0 0 1;
#X connect 4 0 0 1;
#X connect 5 0 0 0;
#X restore 464 47 pd pdklgen-randfu;
#X text 8 47 randfu - generates a list of uniform random floats. see
;
#X restore 282 237 pd dklgen-gens;
#X obj 68 209 pdklex/dklgen;
#X msg 178 140 list randfu -2 3 20;
#X connect 8 0 16 0;
#X connect 16 0 9 0;
#X connect 17 0 16 1;
